<svg xmlns="http://www.w3.org/2000/svg" width="345" height="100" viewBox="0 0 345 100"><g transform="translate(-143 -3305)"><rect width="345" height="100" transform="translate(143 3305)" fill="#007faf"/><g transform="translate(0 -2)"><path d="M9.3-5.075v1.1a3.963,3.963,0,0,1-.312,1.562A4.322,4.322,0,0,1,8.125-1.1a4.158,4.158,0,0,1-1.287.913A3.769,3.769,0,0,1,5.25.15a5.709,5.709,0,0,1-1.475-.2,3.49,3.49,0,0,1-1.35-.7,3.871,3.871,0,0,1-.988-1.288A4.558,4.558,0,0,1,1.05-4.05v-9.8a4.335,4.335,0,0,1,.3-1.625,3.824,3.824,0,0,1,.85-1.3,3.951,3.951,0,0,1,1.312-.863A4.41,4.41,0,0,1,5.2-17.95a3.867,3.867,0,0,1,2.925,1.175,4.174,4.174,0,0,1,.863,1.362A4.6,4.6,0,0,1,9.3-13.7v1H6.75v-.85a2.064,2.064,0,0,0-.425-1.3,1.377,1.377,0,0,0-1.15-.55,1.3,1.3,0,0,0-1.263.588A3.149,3.149,0,0,0,3.6-13.325v9.1a2.357,2.357,0,0,0,.338,1.3A1.33,1.33,0,0,0,5.15-2.4a1.852,1.852,0,0,0,.537-.087,1.6,1.6,0,0,0,.537-.288,1.525,1.525,0,0,0,.375-.55A2.228,2.228,0,0,0,6.75-4.2v-.875ZM19.625-17.8V-4a4.091,4.091,0,0,1-.312,1.612,4.107,4.107,0,0,1-.888,1.312,4.242,4.242,0,0,1-1.325.9A3.98,3.98,0,0,1,15.5.15a3.892,3.892,0,0,1-1.587-.325,4.286,4.286,0,0,1-1.312-.9,4.286,4.286,0,0,1-.9-1.312A3.954,3.954,0,0,1,11.375-4V-17.8h2.55V-4.25a1.91,1.91,0,0,0,.45,1.4A1.526,1.526,0,0,0,15.5-2.4a1.526,1.526,0,0,0,1.125-.45,1.91,1.91,0,0,0,.45-1.4V-17.8Zm10.65,5.125h-2.55v-.575a2.723,2.723,0,0,0-.413-1.513,1.526,1.526,0,0,0-1.387-.637,1.6,1.6,0,0,0-.85.2,1.676,1.676,0,0,0-.525.5,2.115,2.115,0,0,0-.275.738,4.815,4.815,0,0,0-.075.863,8.453,8.453,0,0,0,.038.875,1.661,1.661,0,0,0,.188.625,1.39,1.39,0,0,0,.438.475,4.019,4.019,0,0,0,.788.4l1.95.775a4.835,4.835,0,0,1,1.375.762A3.3,3.3,0,0,1,29.8-8.175a4.733,4.733,0,0,1,.375,1.363,13.483,13.483,0,0,1,.1,1.738,9.162,9.162,0,0,1-.225,2.087,4.4,4.4,0,0,1-.725,1.637A3.6,3.6,0,0,1,27.95-.25a4.85,4.85,0,0,1-2.075.4A4.539,4.539,0,0,1,24.15-.175a4.1,4.1,0,0,1-1.375-.9,4.38,4.38,0,0,1-.913-1.338,4.061,4.061,0,0,1-.337-1.663v-.95h2.55v.8a2.083,2.083,0,0,0,.413,1.262,1.607,1.607,0,0,0,1.387.563,2.237,2.237,0,0,0,1.013-.187,1.346,1.346,0,0,0,.563-.537,1.974,1.974,0,0,0,.237-.838q.037-.488.038-1.088a10.776,10.776,0,0,0-.05-1.15,1.979,1.979,0,0,0-.2-.725,1.406,1.406,0,0,0-.462-.45,5.927,5.927,0,0,0-.763-.375L24.425-8.5a4.042,4.042,0,0,1-2.212-1.788,6.149,6.149,0,0,1-.562-2.787,6.467,6.467,0,0,1,.275-1.9,4.322,4.322,0,0,1,.825-1.55,3.781,3.781,0,0,1,1.338-1.038,4.464,4.464,0,0,1,1.938-.388,4.231,4.231,0,0,1,1.737.35,4.476,4.476,0,0,1,1.362.925,3.863,3.863,0,0,1,1.15,2.75ZM33.85,0V-15.4H30.9v-2.4h8.45v2.4H36.4V0Zm6.175-13.6a4.548,4.548,0,0,1,.375-1.9,4.015,4.015,0,0,1,1-1.375,4.228,4.228,0,0,1,1.362-.8A4.5,4.5,0,0,1,44.3-17.95a4.5,4.5,0,0,1,1.537.275,4.532,4.532,0,0,1,1.388.8A4.186,4.186,0,0,1,48.2-15.5a4.548,4.548,0,0,1,.375,1.9v9.4A4.506,4.506,0,0,1,48.2-2.275,3.971,3.971,0,0,1,47.225-.95a4.287,4.287,0,0,1-1.388.825A4.5,4.5,0,0,1,44.3.15a4.5,4.5,0,0,1-1.538-.275A4.011,4.011,0,0,1,41.4-.95a3.817,3.817,0,0,1-1-1.325A4.506,4.506,0,0,1,40.025-4.2Zm2.55,9.4a1.7,1.7,0,0,0,.513,1.362A1.808,1.808,0,0,0,44.3-2.4a1.808,1.808,0,0,0,1.212-.437A1.7,1.7,0,0,0,46.025-4.2v-9.4a1.7,1.7,0,0,0-.513-1.363A1.808,1.808,0,0,0,44.3-15.4a1.808,1.808,0,0,0-1.213.437,1.7,1.7,0,0,0-.513,1.363ZM50.825,0V-17.8h2.45L56.55-8.375h.05L59.85-17.8h2.475V0h-2.55V-10.825h-.05L57.2-3.175H55.925l-2.5-7.65h-.05V0Zm18.4-13.6a4.548,4.548,0,0,1,.375-1.9,4.015,4.015,0,0,1,1-1.375,4.228,4.228,0,0,1,1.362-.8A4.5,4.5,0,0,1,73.5-17.95a4.5,4.5,0,0,1,1.538.275,4.532,4.532,0,0,1,1.387.8A4.186,4.186,0,0,1,77.4-15.5a4.548,4.548,0,0,1,.375,1.9v9.4A4.506,4.506,0,0,1,77.4-2.275,3.971,3.971,0,0,1,76.425-.95a4.287,4.287,0,0,1-1.387.825A4.5,4.5,0,0,1,73.5.15a4.5,4.5,0,0,1-1.537-.275A4.011,4.011,0,0,1,70.6-.95a3.817,3.817,0,0,1-1-1.325A4.506,4.506,0,0,1,69.225-4.2Zm2.55,9.4a1.7,1.7,0,0,0,.513,1.362A1.808,1.808,0,0,0,73.5-2.4a1.808,1.808,0,0,0,1.213-.437A1.7,1.7,0,0,0,75.225-4.2v-9.4a1.7,1.7,0,0,0-.513-1.363A1.808,1.808,0,0,0,73.5-15.4a1.808,1.808,0,0,0-1.212.437,1.7,1.7,0,0,0-.513,1.363Zm10.8-11.2v5.55h1.45a2.566,2.566,0,0,0,1.075-.187,1.461,1.461,0,0,0,.625-.538A2.444,2.444,0,0,0,86-11.437a8.294,8.294,0,0,0,.075-1.187A8.294,8.294,0,0,0,86-13.812a2.376,2.376,0,0,0-.3-.887,2.029,2.029,0,0,0-1.8-.7ZM80.025,0V-17.8h4.1q4.5,0,4.5,5.225A6.585,6.585,0,0,1,88.137-9.9a3.78,3.78,0,0,1-1.713,1.775L89.175,0h-2.7L84.1-7.6H82.575V0Zm10.65,0V-17.8H94.45a4.384,4.384,0,0,1,3.338,1.2,4.75,4.75,0,0,1,1.137,3.4v8.325a4.964,4.964,0,0,1-1.212,3.688A4.78,4.78,0,0,1,94.225,0Zm2.55-15.4v13H94.4a1.892,1.892,0,0,0,1.525-.537,2.6,2.6,0,0,0,.45-1.687V-13.2a2.693,2.693,0,0,0-.425-1.625A1.814,1.814,0,0,0,94.4-15.4Zm8.1,15.4V-17.8h7.6v2.4h-5.05v5.225h4.4v2.4h-4.4V-2.55h5.05V0Zm11.8-15.4v5.55h1.45a2.566,2.566,0,0,0,1.075-.187,1.461,1.461,0,0,0,.625-.538,2.444,2.444,0,0,0,.275-.863,8.294,8.294,0,0,0,.075-1.187,8.294,8.294,0,0,0-.075-1.187,2.376,2.376,0,0,0-.3-.887,2.029,2.029,0,0,0-1.8-.7ZM110.575,0V-17.8h4.1q4.5,0,4.5,5.225a6.585,6.585,0,0,1-.488,2.675,3.78,3.78,0,0,1-1.713,1.775L119.725,0h-2.7L114.65-7.6h-1.525V0Z" transform="translate(288 3378)" fill="#fad126"/><path d="M6.69-3.135A10.83,10.83,0,0,1,8.475-.75l1.11-.72A10.727,10.727,0,0,0,7.74-3.78Zm7.68-3.78V-8.2H10.8V-9.84h2.895V-11.1H10.8v-1.5H9.42v1.5h-2.8v1.26h2.8V-8.2H5.73v1.29h5.505V-5.31H6.27l-.12-.84-1.575.465V-8.34H5.97V-9.66H4.575v-2.925H3.285V-9.66H2.31c.12-.63.195-1.29.27-1.935l-1.2-.21a17.387,17.387,0,0,1-.93,4.89,10.521,10.521,0,0,1,1.005.63A13,13,0,0,0,2.07-8.34H3.285v3.015c-1.035.3-1.98.555-2.73.735l.36,1.335,2.37-.705V1.17h1.29V-4.365l1.44-.45v.8h5.22V-.48c0,.21-.075.27-.315.27C10.68-.2,9.87-.2,9.03-.225a5.544,5.544,0,0,1,.435,1.4A8.08,8.08,0,0,0,11.94.945c.51-.24.675-.645.675-1.395V-4.02H14.25V-5.31H12.615V-6.915Zm6.48-4.02A10.443,10.443,0,0,0,18-12.495l-.75,1.02A12.22,12.22,0,0,1,20.025-9.81Zm-.9,3.84A12.22,12.22,0,0,0,17.04-8.49l-.72,1.065A12.852,12.852,0,0,1,19.2-5.91Zm-.21,2.4A42.431,42.431,0,0,1,16.92.06L18.1.99C18.99-.42,19.98-2.2,20.76-3.765Zm6.3,4.08V-3.84H29.3V-5.175H26.04V-8.04h3.795V-9.36H26.3l.81-.975a15.312,15.312,0,0,0-3.495-2.28l-.9,1.065A15.913,15.913,0,0,1,25.9-9.36H20.97v1.32H24.6v2.865H21.51V-3.84H24.6V-.615H20.46V.72h9.705V-.615Zm15.78-7.56H36.195V-10.62H41.82Zm1.425-3.78H34.86V-6.84h8.385Zm-6.45,7.9V-.93h-2.73V-4.05Zm-4.05,5.235h1.32V.405h2.73V1.08h1.38V-5.385h-5.43ZM40.98-.93V-4.05h2.97V-.93ZM39.645-5.385v6.57H40.98V.405h2.97V1.11h1.4V-5.385ZM57.3-11.865H55.59a11.543,11.543,0,0,1,.135,1.365c.015.36.03.81.045,1.305H50.535a11.771,11.771,0,0,1-1.5-.105v1.59q.742-.045,1.53-.045H55.14a18.291,18.291,0,0,1-6.765,5.52L49.455-1a20.78,20.78,0,0,0,6.375-5.37c.03,1.83.045,3.7.045,4.83,0,.4-.15.6-.555.6a15.257,15.257,0,0,1-2.055-.165l.12,1.545c.795.045,1.665.09,2.49.09,1.005,0,1.515-.48,1.515-1.35-.015-1.935-.075-4.71-.12-6.93h2.19c.375,0,.915.015,1.32.03V-9.3a12.071,12.071,0,0,1-1.395.105H57.24c0-.51-.015-.945-.015-1.305A8.332,8.332,0,0,1,57.3-11.865ZM64.455-6.69v1.86c.51-.045,1.41-.075,2.235-.075h8.16c.66,0,1.35.06,1.68.075V-6.69c-.375.03-.96.09-1.68.09H66.69C65.88-6.6,64.95-6.66,64.455-6.69ZM90.315-12.2l-.96.405A15.4,15.4,0,0,1,90.42-9.96l-.06-.03a3.425,3.425,0,0,1-1.11.15H85.635c.06-.1.1-.2.165-.3.165-.3.48-.885.78-1.335L84.87-12a5.773,5.773,0,0,1-.585,1.335A13.71,13.71,0,0,1,79.5-5.535l1.275.975a16.988,16.988,0,0,0,3.96-3.93H89.46a11.962,11.962,0,0,1-1.86,3.8c-1-.69-2.055-1.365-2.955-1.89L83.61-5.52c.87.54,1.935,1.275,2.97,2.04A12.917,12.917,0,0,1,80.925-.03l1.35,1.185a14.157,14.157,0,0,0,5.565-3.69c.63.495,1.185.96,1.62,1.35L90.57-2.52c-.465-.375-1.05-.825-1.695-1.29A15.849,15.849,0,0,0,91.17-8.325a5.134,5.134,0,0,1,.42-.915l-.885-.54.825-.36A21.736,21.736,0,0,0,90.315-12.2Zm1.695-.63-.96.405a14.891,14.891,0,0,1,1.23,2.055l.975-.42A17.731,17.731,0,0,0,92.01-12.825ZM95.955-6.69v1.86c.51-.045,1.41-.075,2.235-.075h8.16c.66,0,1.35.06,1.68.075V-6.69c-.375.03-.96.09-1.68.09H98.19C97.38-6.6,96.45-6.66,95.955-6.69Z" transform="translate(288 3347)" fill="#fff"/><g transform="translate(223 3332.149)"><path d="M403.722,1762.822a3.926,3.926,0,0,0-.324-1.027.509.509,0,0,0-.9-.142l-.5.707-2.855,4.01a1.8,1.8,0,0,1-2.515.313l-4.808-3.44a1.8,1.8,0,0,1-.517-2.482l2.924-4.106.48-.67a.509.509,0,0,0-.421-.806,4.431,4.431,0,0,0-1.179.015,9.578,9.578,0,0,0-8.352,9.273c-.019.779.686,4.165-1.156,6.007l-22.4,22.4a4.042,4.042,0,0,0,5.716,5.716s20.941-20.94,22.4-22.4,5.511-1.894,6.314-2a9.579,9.579,0,0,0,8.1-11.364Zm-40.98,34.22a1.936,1.936,0,1,1,2.738,0A1.936,1.936,0,0,1,362.742,1797.042Z" transform="translate(-360.009 -1755.149)" fill="#fff"/></g><g transform="translate(254.635 3356.716)"><g transform="translate(-386.619 -1779.716)" fill="none" stroke-miterlimit="10"><path d="M391.015,1779.821a2.244,2.244,0,0,0-.588.185.292.292,0,0,0-.082.516l.4.289,2.3,1.636a1.028,1.028,0,0,1,.179,1.441l-1.971,2.755a1.03,1.03,0,0,1-1.422.3l-2.352-1.676-.384-.275a.292.292,0,0,0-.462.242,2.531,2.531,0,0,0,.009.675,5.485,5.485,0,0,0,5.312,4.785c.447.011,2.387-.393,3.442.663l7.469,7.469a2.316,2.316,0,0,0,3.275-3.275l-7.47-7.469c-.837-.837-1.085-3.158-1.147-3.618a5.489,5.489,0,0,0-6.511-4.639Zm14.241,18.113a1.109,1.109,0,1,1,0-1.568A1.108,1.108,0,0,1,405.256,1797.934Z" stroke="none"/><path d="M 392.0871276855469 1779.715576171875 C 391.7282409667969 1779.715576171875 391.3692016601562 1779.750610351562 391.0150146484375 1779.821044921875 C 390.625 1779.89794921875 390.427001953125 1780.005981445312 390.427001953125 1780.005981445312 C 390.3210144042969 1780.0400390625 390.2439880371094 1780.130004882812 390.2260131835938 1780.238037109375 C 390.2090148925781 1780.348022460938 390.2550048828125 1780.45703125 390.3450012207031 1780.52197265625 L 390.75 1780.81103515625 L 393.0480041503906 1782.447021484375 C 393.489990234375 1782.762939453125 393.5700073242188 1783.407958984375 393.2269897460938 1783.887939453125 L 391.2560119628906 1786.642944335938 C 391.0390014648438 1786.945922851562 390.704345703125 1787.110595703125 390.3758239746094 1787.110595703125 C 390.18505859375 1787.110595703125 389.9963989257812 1787.055053710938 389.8340148925781 1786.93896484375 L 387.4819946289062 1785.262939453125 L 387.0979919433594 1784.988037109375 C 387.0470886230469 1784.952392578125 386.9872436523438 1784.93408203125 386.9272766113281 1784.93408203125 C 386.8812255859375 1784.93408203125 386.8351440429688 1784.94482421875 386.7929992675781 1784.967041015625 C 386.6950073242188 1785.017944335938 386.635009765625 1785.119018554688 386.635986328125 1785.22998046875 C 386.635986328125 1785.22998046875 386.5920104980469 1785.489013671875 386.6449890136719 1785.905029296875 C 386.7780151367188 1786.949951171875 387.2139892578125 1787.968994140625 387.9599914550781 1788.821044921875 C 389.0130004882812 1790.02294921875 390.4760131835938 1790.655029296875 391.9570007324219 1790.68994140625 C 391.9631652832031 1790.690063476562 391.9696350097656 1790.690185546875 391.9763793945312 1790.690185546875 C 392.1788635253906 1790.690185546875 392.633056640625 1790.623046875 393.1687316894531 1790.623046875 C 393.9055480957031 1790.623046875 394.7965393066406 1790.75 395.3989868164062 1791.35302734375 C 396.4540100097656 1792.407958984375 402.8680114746094 1798.822021484375 402.8680114746094 1798.822021484375 C 403.3204956054688 1799.27392578125 403.9132690429688 1799.5 404.5058898925781 1799.5 C 405.0985107421875 1799.5 405.6910095214844 1799.27392578125 406.1430053710938 1798.822021484375 C 407.0469970703125 1797.9169921875 407.0469970703125 1796.451049804688 406.1430053710938 1795.546997070312 C 406.1430053710938 1795.546997070312 399.510009765625 1788.913940429688 398.6730041503906 1788.078002929688 C 397.8359985351562 1787.240966796875 397.5880126953125 1784.920043945312 397.5260009765625 1784.4599609375 C 397.3869934082031 1783.430053710938 396.9530029296875 1782.427978515625 396.2160034179688 1781.587036132812 C 395.1311950683594 1780.34912109375 393.6128540039062 1779.715698242188 392.0871276855469 1779.715576171875 M 404.4711303710938 1798.259521484375 C 404.187255859375 1798.259521484375 403.9035034179688 1798.151000976562 403.68701171875 1797.933959960938 C 403.2539978027344 1797.5009765625 403.2529907226562 1796.798950195312 403.68701171875 1796.365966796875 C 403.9035034179688 1796.149047851562 404.187255859375 1796.04052734375 404.4711303710938 1796.04052734375 C 404.7550048828125 1796.04052734375 405.0390014648438 1796.149047851562 405.2560119628906 1796.365966796875 C 405.6889953613281 1796.798950195312 405.6889953613281 1797.5009765625 405.2560119628906 1797.933959960938 C 405.0390014648438 1798.151000976562 404.7550048828125 1798.259521484375 404.4711303710938 1798.259521484375 M 392.0868225097656 1778.715576171875 L 392.0868225097656 1779.715576171875 L 392.0869140625 1778.715576171875 C 393.9569702148438 1778.715698242188 395.7359924316406 1779.522094726562 396.9680786132812 1780.927978515625 C 397.8111877441406 1781.890014648438 398.3468017578125 1783.065063476562 398.5169982910156 1784.326171875 C 398.5211486816406 1784.35693359375 398.5260620117188 1784.395141601562 398.5317993164062 1784.440185546875 C 398.8070983886719 1786.594970703125 399.2167663574219 1787.20751953125 399.380126953125 1787.370849609375 C 400.2073059082031 1788.197021484375 406.7837829589844 1794.773559570312 406.8501281738281 1794.83984375 C 408.1421813964844 1796.132080078125 408.142333984375 1798.235473632812 406.8505249023438 1799.528686523438 C 406.2239990234375 1800.155151367188 405.3914794921875 1800.5 404.5058898925781 1800.5 C 403.6205139160156 1800.5 402.7878723144531 1800.1552734375 402.1613159179688 1799.529541015625 L 394.69189453125 1792.060180664062 C 394.4020385742188 1791.77001953125 393.8896789550781 1791.623046875 393.1687316894531 1791.623046875 C 392.8797302246094 1791.623046875 392.60986328125 1791.646240234375 392.3930053710938 1791.664794921875 C 392.2271728515625 1791.678955078125 392.09619140625 1791.690185546875 391.9763793945312 1791.690185546875 C 391.9612121582031 1791.690185546875 391.9465942382812 1791.68994140625 391.9327087402344 1791.689697265625 C 390.1231384277344 1791.64697265625 388.4007263183594 1790.841552734375 387.2078247070312 1789.47998046875 C 386.3536071777344 1788.50439453125 385.8160400390625 1787.311889648438 385.6529846191406 1786.031372070312 C 385.599365234375 1785.610229492188 385.62109375 1785.294799804688 385.6384582519531 1785.14599609375 C 385.6661682128906 1784.695190429688 385.9240112304688 1784.293579101562 386.327392578125 1784.08203125 L 386.327392578125 1784.08203125 C 386.5114440917969 1783.985229492188 386.7188720703125 1783.93408203125 386.9272766113281 1783.93408203125 C 387.1947021484375 1783.93408203125 387.4520263671875 1784.015258789062 387.6714477539062 1784.168823242188 L 387.67578125 1784.171875 L 387.6800842285156 1784.174926757812 L 388.0640869140625 1784.449829101562 L 390.3892517089844 1786.106689453125 C 390.4029541015625 1786.100952148438 390.4237060546875 1786.087646484375 390.4429626464844 1786.060791015625 L 392.4136962890625 1783.306030273438 C 392.4324645996094 1783.27978515625 392.4384765625 1783.25634765625 392.439697265625 1783.241455078125 L 390.1700439453125 1781.625610351562 L 389.7640686035156 1781.3359375 L 389.7619323730469 1781.334350585938 L 389.7598266601562 1781.332885742188 C 389.3631286621094 1781.046630859375 389.1630859375 1780.568603515625 389.2377319335938 1780.085327148438 L 389.2386169433594 1780.07958984375 L 389.2395935058594 1780.073852539062 C 389.3141174316406 1779.625854492188 389.6131896972656 1779.255615234375 390.0297546386719 1779.087036132812 C 390.1640319824219 1779.02392578125 390.42919921875 1778.917358398438 390.8215637207031 1778.839965820312 C 391.23583984375 1778.757568359375 391.6620788574219 1778.715576171875 392.0868225097656 1778.715576171875 Z" stroke="none" fill="#fff"/></g></g></g></g></svg>